<?xml version="1.0" standalone="no"?>
<!DOCTYPE svg PUBLIC "-//W3C//DTD SVG 20010904//EN"
 "http://www.w3.org/TR/2001/REC-SVG-20010904/DTD/svg10.dtd">
<svg version="1.0" xmlns="http://www.w3.org/2000/svg"
 width="500.000000pt" height="500.000000pt" viewBox="0 0 500.000000 500.000000"
 preserveAspectRatio="xMidYMid meet">
<metadata>
Created by potrace 1.11, written by Peter Selinger 2001-2013
</metadata>
<g transform="translate(0.000000,500.000000) scale(0.100000,-0.100000)"
fill="#000000" stroke="none">
<path d="M3960 4749 c-344 -137 -634 -254 -645 -259 -23 -11 -915 -370 -930
-374 -14 -5 -38 -14 -335 -134 l-265 -107 -3 -330 -2 -330 317 -125 c175 -68
325 -127 333 -131 8 -4 132 -53 275 -109 143 -56 269 -106 280 -111 11 -5 198
-79 415 -165 582 -230 804 -317 1008 -398 l182 -73 0 1449 c0 796 -1 1448 -2
1448 -2 -1 -284 -113 -628 -251z"/>
<path d="M1080 4063 c-197 -21 -340 -91 -340 -169 0 -20 4 -23 30 -20 22 2 30
-1 31 -13 1 -20 1 -623 0 -633 -1 -5 -9 -8 -20 -8 -13 0 -25 -15 -39 -48 -21
-48 -21 -48 -1 -106 16 -50 17 -68 9 -123 -6 -35 -13 -85 -16 -111 -3 -26 -7
-60 -10 -77 -2 -16 -6 -48 -9 -70 -3 -22 -9 -71 -15 -110 -5 -38 -12 -92 -15
-120 -3 -27 -7 -61 -10 -75 -2 -14 -7 -47 -10 -75 -3 -27 -10 -77 -15 -110 -9
-60 -20 -148 -25 -195 -4 -37 -16 -131 -20 -150 -2 -9 -6 -41 -10 -71 -4 -30
-9 -70 -11 -89 -3 -19 -7 -53 -9 -75 -3 -22 -7 -51 -10 -65 -2 -14 -7 -50 -10
-80 -4 -30 -8 -66 -10 -80 -5 -33 -8 -52 -55 -415 -22 -171 -42 -323 -45 -340
-2 -16 -7 -52 -10 -80 -4 -27 -8 -61 -10 -75 -2 -14 -7 -47 -10 -75 -3 -27 -8
-61 -10 -75 -3 -14 -7 -44 -10 -67 -3 -24 -7 -61 -10 -83 -4 -33 -1 -42 18
-55 46 -30 191 -74 302 -91 17 -3 41 -7 55 -10 154 -26 662 -26 800 1 13 3 42
7 65 10 70 10 188 45 245 73 60 29 59 26 46 127 -9 71 -39 294 -51 380 -2 17
-7 53 -10 80 -3 28 -15 113 -25 190 -11 77 -22 160 -24 185 -3 25 -10 77 -15
115 -6 39 -13 93 -16 120 -3 28 -10 79 -15 115 -5 36 -14 103 -20 150 -6 47
-13 102 -16 122 -3 21 -6 50 -8 65 -2 15 -9 64 -15 108 -6 44 -13 100 -16 125
-3 25 -8 61 -10 80 -3 19 -7 53 -10 75 -3 22 -15 108 -26 190 -40 302 -60 451
-65 495 -2 25 -7 56 -9 70 -16 96 -16 118 5 172 l21 56 -23 46 c-12 25 -29 46
-37 46 -14 0 -16 36 -15 313 1 171 2 319 3 328 1 11 9 15 26 14 52 -6 18 73
-49 114 -87 54 -278 88 -416 74z"/>
</g>
</svg>
